<?xml version="1.0" encoding="UTF-8"?>
<!DOCTYPE svg PUBLIC "-//W3C//DTD SVG 1.1//EN" "http://www.w3.org/Graphics/SVG/1.1/DTD/svg11.dtd">
<svg xmlns="http://www.w3.org/2000/svg" version="1.1" width="170px" height="170px" style="shape-rendering:geometricPrecision; text-rendering:geometricPrecision; image-rendering:optimizeQuality; fill-rule:evenodd; clip-rule:evenodd" xmlns:xlink="http://www.w3.org/1999/xlink">
<g><path style="opacity:1" fill="#fcfcfc" d="M -0.5,-0.5 C 56.1667,-0.5 112.833,-0.5 169.5,-0.5C 169.5,56.1667 169.5,112.833 169.5,169.5C 112.833,169.5 56.1667,169.5 -0.5,169.5C -0.5,112.833 -0.5,56.1667 -0.5,-0.5 Z"/></g>
<g><path style="opacity:1" fill="#2e2c2d" d="M 80.5,3.5 C 86.9383,1.7562 90.7716,4.08954 92,10.5C 92.6773,33.5197 93.6773,56.5197 95,79.5C 97.0902,80.7908 98.4236,80.1242 99,77.5C 105.337,57.8224 111.67,38.1558 118,18.5C 122.524,11.9101 126.858,11.9101 131,18.5C 131.439,22.2113 131.106,25.8779 130,29.5C 125.052,48.4119 120.552,67.4119 116.5,86.5C 118.903,86.607 120.736,85.607 122,83.5C 130.782,71.0501 139.949,58.8834 149.5,47C 154.82,45.1677 157.487,47.001 157.5,52.5C 157.182,55.9561 156.348,59.2894 155,62.5C 148.252,74.3324 141.252,85.9991 134,97.5C 130.877,117.327 125.877,136.66 119,155.5C 115.091,163.871 108.591,167.037 99.5,165C 92.8019,161.879 86.1352,161.879 79.5,165C 72.4928,166.562 66.1595,165.229 60.5,161C 45.5157,146.871 34.6824,130.038 28,110.5C 22.7511,103.004 17.7511,95.3374 13,87.5C 9.60442,80.8888 11.4378,76.8888 18.5,75.5C 26.0394,76.8757 32.2061,80.5424 37,86.5C 40.3212,94.146 44.8212,100.979 50.5,107C 51.3317,107.688 51.9984,107.521 52.5,106.5C 54.4095,99.2833 54.9095,91.9499 54,84.5C 48.5988,64.7287 43.4322,44.8954 38.5,25C 39.8327,17.6675 43.8327,15.6675 50.5,19C 52.0412,20.5793 53.2078,22.4127 54,24.5C 60.2761,41.9413 65.7761,59.608 70.5,77.5C 72.1667,77.5 73.8333,77.5 75.5,77.5C 75.3334,54.8309 75.5,32.1642 76,9.5C 77.332,7.34004 78.832,5.34004 80.5,3.5 Z"/></g>
<g><path style="opacity:1" fill="#f9f9f9" d="M 90.5,30.5 C 90.8142,38.0871 90.4808,45.5871 89.5,53C 90.0944,53.4643 90.7611,53.631 91.5,53.5C 91.8752,62.5031 92.3752,71.5031 93,80.5C 96.4882,83.4615 99.1549,82.7948 101,78.5C 107.181,58.7745 113.514,39.1078 120,19.5C 122.706,16.0221 125.706,15.6888 129,18.5C 129.439,22.2113 129.106,25.8779 128,29.5C 122.707,48.6657 118.374,67.999 115,87.5C 116.085,88.2931 117.252,88.9598 118.5,89.5C 120.761,88.3176 122.595,86.6509 124,84.5C 132.448,72.3842 141.282,60.5509 150.5,49C 152.112,48.2797 153.612,48.4464 155,49.5C 155.823,53.7384 155.156,57.7384 153,61.5C 146.762,72.7427 140.096,83.7427 133,94.5C 130.334,106.49 127.668,118.49 125,130.5C 122.919,139.496 119.919,148.162 116,156.5C 113.18,161.137 109.013,163.47 103.5,163.5C 92.9935,160.692 82.3268,159.526 71.5,160C 75.211,160.175 78.8776,160.675 82.5,161.5C 76.4321,164.267 70.4321,164.101 64.5,161C 55.8841,153.39 48.3841,144.89 42,135.5C 37.1477,125.955 32.481,116.288 28,106.5C 22.5437,99.7019 17.877,92.3686 14,84.5C 13.0069,78.4983 15.5069,76.3317 21.5,78C 26.3803,79.3549 30.547,81.8549 34,85.5C 37.6048,92.1002 41.6048,98.4336 46,104.5C 48.4356,107.447 51.2689,109.78 54.5,111.5C 54.0183,110.584 53.685,109.584 53.5,108.5C 55.8645,100.985 56.6978,93.3181 56,85.5C 51.0032,66.8376 46.0032,48.1709 41,29.5C 39.1925,24.2447 40.8591,20.9114 46,19.5C 48.151,19.6431 49.8176,20.6431 51,22.5C 57.597,40.6246 63.597,58.958 69,77.5C 71.4177,79.6801 74.0844,80.0135 77,78.5C 77.0744,55.1348 77.7411,31.8015 79,8.5C 82.048,4.9905 85.3813,4.65716 89,7.5C 90.4321,15.0542 90.9321,22.7208 90.5,30.5 Z"/></g>
<g><path style="opacity:1" fill="#959595" d="M 54.5,111.5 C 56.8522,112.566 59.1856,113.733 61.5,115C 58.3856,115.443 56.0523,114.276 54.5,111.5 Z"/></g>
<g><path style="opacity:1" fill="#b1b0b1" d="M 90.5,30.5 C 91.492,37.9818 91.8254,45.6484 91.5,53.5C 90.7611,53.631 90.0944,53.4643 89.5,53C 90.4808,45.5871 90.8142,38.0871 90.5,30.5 Z"/></g>
</svg>
