<?xml version="1.0" encoding="UTF-8"?>
<!DOCTYPE svg PUBLIC "-//W3C//DTD SVG 1.1//EN" "http://www.w3.org/Graphics/SVG/1.1/DTD/svg11.dtd">
<svg xmlns="http://www.w3.org/2000/svg" version="1.1" width="170px" height="170px" style="shape-rendering:geometricPrecision; text-rendering:geometricPrecision; image-rendering:optimizeQuality; fill-rule:evenodd; clip-rule:evenodd" xmlns:xlink="http://www.w3.org/1999/xlink">
<g><path style="opacity:1" fill="#24242c" d="M -0.5,-0.5 C 56.1667,-0.5 112.833,-0.5 169.5,-0.5C 169.5,56.1667 169.5,112.833 169.5,169.5C 112.833,169.5 56.1667,169.5 -0.5,169.5C -0.5,112.833 -0.5,56.1667 -0.5,-0.5 Z"/></g>
<g><path style="opacity:1" fill="#ccc7c9" d="M 80.5,3.5 C 85.7419,2.27055 89.5752,3.93722 92,8.5C 93.208,31.4842 93.708,54.4842 93.5,77.5C 95.1667,77.5 96.8333,77.5 98.5,77.5C 103.29,59.628 108.79,41.9613 115,24.5C 116.697,18.4571 120.531,16.2905 126.5,18C 128.871,19.7432 130.205,22.0766 130.5,25C 125.568,44.8954 120.401,64.7287 115,84.5C 114.091,91.9499 114.591,99.2833 116.5,106.5C 117.002,107.521 117.668,107.688 118.5,107C 124.508,100.653 129.341,93.486 133,85.5C 138.78,78.1288 146.28,75.2955 155.5,77C 157.478,79.4973 157.978,82.3307 157,85.5C 152.833,93.1718 148.166,100.505 143,107.5C 138.178,118.477 132.845,129.143 127,139.5C 122.377,145.792 117.377,151.792 112,157.5C 106.094,164.7 98.5939,167.2 89.5,165C 86.331,164.166 83.1643,163.332 80,162.5C 73.923,164.264 67.7563,165.097 61.5,165C 56.1899,163.696 52.3566,160.529 50,155.5C 43.1228,136.658 38.1228,117.325 35,97.5C 27.7484,85.9991 20.7484,74.3324 14,62.5C 12.6516,59.2894 11.8182,55.9561 11.5,52.5C 11.3262,50.3066 11.9929,48.4733 13.5,47C 16.4192,46.4484 19.0859,47.1151 21.5,49C 30.122,60.411 38.622,71.911 47,83.5C 48.2635,85.607 50.0968,86.607 52.5,86.5C 47.8306,66.1545 42.9973,45.8212 38,25.5C 36.3033,19.5598 38.3033,15.5598 44,13.5C 46.8792,14.3758 49.2125,16.0424 51,18.5C 57.3333,38.1667 63.6667,57.8333 70,77.5C 70.5764,80.1242 71.9098,80.7908 74,79.5C 75.3744,56.1883 76.3744,32.855 77,9.5C 77.5637,7.11327 78.7304,5.11327 80.5,3.5 Z"/></g>
<g><path style="opacity:1" fill="#060606" d="M 115.5,109.5 C 113.59,111.562 111.257,113.062 108.5,114C 107.304,114.654 107.304,115.154 108.5,115.5C 112.065,114.255 115.065,112.255 117.5,109.5C 124.63,102.523 130.463,94.5233 135,85.5C 139.372,81.2957 144.538,78.6291 150.5,77.5C 154.989,77.8333 156.489,80.1666 155,84.5C 150.833,92.1718 146.166,99.5052 141,106.5C 136.134,116.115 131.467,125.782 127,135.5C 119.876,146.291 111.043,155.458 100.5,163C 95.6301,163.967 90.9634,163.467 86.5,161.5C 90.1224,160.675 93.789,160.175 97.5,160C 95,159.833 92.5,159.667 90,159.5C 81.769,160.379 73.6023,161.713 65.5,163.5C 61.4848,163.441 57.9848,162.107 55,159.5C 51.9009,154.875 49.5676,149.875 48,144.5C 43.1863,128.765 39.5197,112.765 37,96.5C 28.3224,83.8195 20.6557,70.4862 14,56.5C 12.1979,48.2769 14.5312,46.6102 21,51.5C 28.6667,62.1667 36.3333,72.8333 44,83.5C 45.9597,85.7855 48.1264,87.7855 50.5,89.5C 53.5804,88.9216 54.9137,87.0882 54.5,84C 49.7937,64.1352 44.9604,44.3019 40,24.5C 39.3644,16.1018 42.3644,14.4351 49,19.5C 55.4689,39.9066 62.1356,60.2399 69,80.5C 72.4882,83.4615 75.1549,82.7948 77,78.5C 77.4997,70.8406 77.6664,63.1739 77.5,55.5C 78.2674,54.828 78.9341,53.9947 79.5,53C 78.5192,45.5871 78.1858,38.0871 78.5,30.5C 78.1039,22.747 78.6039,15.0804 80,7.5C 83.6187,4.65716 86.952,4.9905 90,8.5C 91.2347,31.8072 91.9013,55.1405 92,78.5C 96.0348,80.4441 99.0348,79.4441 101,75.5C 105.871,57.5538 111.538,39.8871 118,22.5C 121.333,18.5 124.667,18.5 128,22.5C 128.667,24.5 128.667,26.5 128,28.5C 122.841,47.468 117.841,66.468 113,85.5C 112.414,93.6485 113.247,101.649 115.5,109.5 Z"/></g>
<g><path style="opacity:1" fill="#423d3e" d="M 78.5,30.5 C 78.1858,38.0871 78.5192,45.5871 79.5,53C 78.9341,53.9947 78.2674,54.828 77.5,55.5C 77.1739,46.9832 77.5073,38.6499 78.5,30.5 Z"/></g>
<g><path style="opacity:1" fill="#828282" d="M 115.5,109.5 C 116.167,109.5 116.833,109.5 117.5,109.5C 115.065,112.255 112.065,114.255 108.5,115.5C 107.304,115.154 107.304,114.654 108.5,114C 111.257,113.062 113.59,111.562 115.5,109.5 Z"/></g>
</svg>
