<?xml version="1.0" encoding="UTF-8"?>
<!DOCTYPE svg PUBLIC "-//W3C//DTD SVG 1.1//EN" "http://www.w3.org/Graphics/SVG/1.1/DTD/svg11.dtd">
<svg xmlns="http://www.w3.org/2000/svg" version="1.1" width="170px" height="170px" style="shape-rendering:geometricPrecision; text-rendering:geometricPrecision; image-rendering:optimizeQuality; fill-rule:evenodd; clip-rule:evenodd" xmlns:xlink="http://www.w3.org/1999/xlink">
<g><path style="opacity:1" fill="#24242c" d="M -0.5,-0.5 C 56.1667,-0.5 112.833,-0.5 169.5,-0.5C 169.5,56.1667 169.5,112.833 169.5,169.5C 112.833,169.5 56.1667,169.5 -0.5,169.5C -0.5,112.833 -0.5,56.1667 -0.5,-0.5 Z"/></g>
<g><path style="opacity:1" fill="#cac5c7" d="M 72.5,77.5 C 72.8333,78.1667 73.1667,78.8333 73.5,79.5C 71.8561,79.7135 70.3561,79.3802 69,78.5C 63.7991,59.5645 57.7991,40.8978 51,22.5C 47.6667,18.5 44.3333,18.5 41,22.5C 40.3333,24.8333 40.3333,27.1667 41,29.5C 46,47.8333 51,66.1667 56,84.5C 56.6968,92.986 55.8635,101.319 53.5,109.5C 52.8333,109.5 52.1667,109.5 51.5,109.5C 43.9766,102.809 38.1432,94.8089 34,85.5C 29.6285,81.2957 24.4618,78.6291 18.5,77.5C 14.0106,77.8333 12.5106,80.1666 14,84.5C 18.1673,92.1718 22.8339,99.5052 28,106.5C 32.481,116.288 37.1477,125.955 42,135.5C 49.1239,146.291 57.9572,155.458 68.5,163C 73.3334,163.883 78,163.383 82.5,161.5C 78.8776,160.675 75.211,160.175 71.5,160C 74,159.833 76.5,159.667 79,159.5C 87.231,160.379 95.3977,161.713 103.5,163.5C 109.013,163.47 113.18,161.137 116,156.5C 123.733,136.557 129.066,116.224 132,95.5C 140.927,83.3236 148.594,70.3236 155,56.5C 156.802,48.2769 154.469,46.6102 148,51.5C 139.36,63.6406 130.526,75.6406 121.5,87.5C 117.805,90.546 115.472,89.7126 114.5,85C 119.264,63.7776 124.264,42.6109 129.5,21.5C 129.167,17.0106 126.833,15.5106 122.5,17C 121.667,17.8333 120.833,18.6667 120,19.5C 113.667,39.1667 107.333,58.8333 101,78.5C 98,83.8333 95,83.8333 92,78.5C 91.722,55.8207 91.0553,33.1541 90,10.5C 88.923,5.88484 86.0897,4.38484 81.5,6C 80.6667,6.83333 79.8333,7.66667 79,8.5C 77.6206,28.136 77.1206,47.8026 77.5,67.5C 76.6862,69.631 76.1862,71.9644 76,74.5C 75.5026,71.854 75.3359,69.1873 75.5,66.5C 75.3334,47.8304 75.5001,29.1637 76,10.5C 77.8823,3.9888 82.0489,1.82213 88.5,4C 90.0412,5.57934 91.2078,7.41267 92,9.5C 92.6256,32.855 93.6256,56.1883 95,79.5C 97.0902,80.7908 98.4236,80.1242 99,77.5C 105.333,57.8333 111.667,38.1667 118,18.5C 122.524,11.9101 126.858,11.9101 131,18.5C 131.667,20.8333 131.667,23.1667 131,25.5C 126.098,45.8484 121.265,66.1817 116.5,86.5C 118.903,86.607 120.736,85.607 122,83.5C 130.378,71.911 138.878,60.411 147.5,49C 149.914,47.1151 152.581,46.4484 155.5,47C 157.007,48.4733 157.674,50.3066 157.5,52.5C 157.182,55.9561 156.348,59.2894 155,62.5C 148.252,74.3324 141.252,85.9991 134,97.5C 130.877,117.325 125.877,136.658 119,155.5C 115.05,163.787 108.55,166.954 99.5,165C 95.7977,164.324 92.131,163.491 88.5,162.5C 81.7129,165.149 74.7129,165.982 67.5,165C 65.0038,163.92 62.6705,162.586 60.5,161C 45.5157,146.871 34.6824,130.038 28,110.5C 22.2687,103.298 17.2687,95.631 13,87.5C 10.8408,83.8084 11.0075,80.3084 13.5,77C 23.2598,75.2935 31.0931,78.4602 37,86.5C 40.3212,94.146 44.8212,100.979 50.5,107C 51.3317,107.688 51.9984,107.521 52.5,106.5C 54.4095,99.2833 54.9095,91.9499 54,84.5C 48.5988,64.7287 43.4322,44.8954 38.5,25C 39.5759,18.5902 43.2426,16.2569 49.5,18C 51.6166,19.7309 53.1166,21.8976 54,24.5C 59.8996,41.5324 65.3996,58.6991 70.5,76C 70.8361,77.0299 71.5028,77.5299 72.5,77.5 Z"/></g>
<g><path style="opacity:1" fill="#070606" d="M 51.5,109.5 C 53.9355,112.255 56.9355,114.255 60.5,115.5C 61.6956,115.154 61.6956,114.654 60.5,114C 57.7435,113.062 55.4101,111.562 53.5,109.5C 55.8635,101.319 56.6968,92.986 56,84.5C 51,66.1667 46,47.8333 41,29.5C 40.3333,27.1667 40.3333,24.8333 41,22.5C 44.3333,18.5 47.6667,18.5 51,22.5C 57.7991,40.8978 63.7991,59.5645 69,78.5C 70.3561,79.3802 71.8561,79.7135 73.5,79.5C 74.8221,79.67 75.9887,79.3366 77,78.5C 77.4986,74.8484 77.6653,71.1817 77.5,67.5C 77.1206,47.8026 77.6206,28.136 79,8.5C 79.8333,7.66667 80.6667,6.83333 81.5,6C 86.0897,4.38484 88.923,5.88484 90,10.5C 91.0553,33.1541 91.722,55.8207 92,78.5C 95,83.8333 98,83.8333 101,78.5C 107.333,58.8333 113.667,39.1667 120,19.5C 120.833,18.6667 121.667,17.8333 122.5,17C 126.833,15.5106 129.167,17.0106 129.5,21.5C 124.264,42.6109 119.264,63.7776 114.5,85C 115.472,89.7126 117.805,90.546 121.5,87.5C 130.526,75.6406 139.36,63.6406 148,51.5C 154.469,46.6102 156.802,48.2769 155,56.5C 148.594,70.3236 140.927,83.3236 132,95.5C 129.066,116.224 123.733,136.557 116,156.5C 113.18,161.137 109.013,163.47 103.5,163.5C 95.3977,161.713 87.231,160.379 79,159.5C 76.5,159.667 74,159.833 71.5,160C 75.211,160.175 78.8776,160.675 82.5,161.5C 78,163.383 73.3334,163.883 68.5,163C 57.9572,155.458 49.1239,146.291 42,135.5C 37.1477,125.955 32.481,116.288 28,106.5C 22.8339,99.5052 18.1673,92.1718 14,84.5C 12.5106,80.1666 14.0106,77.8333 18.5,77.5C 24.4618,78.6291 29.6285,81.2957 34,85.5C 38.1432,94.8089 43.9766,102.809 51.5,109.5 Z"/></g>
<g><path style="opacity:1" fill="#9c989a" d="M 75.5,66.5 C 75.3359,69.1873 75.5026,71.854 76,74.5C 76.1862,71.9644 76.6862,69.631 77.5,67.5C 77.6653,71.1817 77.4986,74.8484 77,78.5C 75.9887,79.3366 74.8221,79.67 73.5,79.5C 73.1667,78.8333 72.8333,78.1667 72.5,77.5C 74.1254,74.1091 75.1254,70.4425 75.5,66.5 Z"/></g>
<g><path style="opacity:1" fill="#848384" d="M 51.5,109.5 C 52.1667,109.5 52.8333,109.5 53.5,109.5C 55.4101,111.562 57.7435,113.062 60.5,114C 61.6956,114.654 61.6956,115.154 60.5,115.5C 56.9355,114.255 53.9355,112.255 51.5,109.5 Z"/></g>
</svg>
