<?xml version="1.0" encoding="UTF-8"?>
<!DOCTYPE svg PUBLIC "-//W3C//DTD SVG 1.1//EN" "http://www.w3.org/Graphics/SVG/1.1/DTD/svg11.dtd">
<svg xmlns="http://www.w3.org/2000/svg" version="1.1" width="170px" height="170px" style="shape-rendering:geometricPrecision; text-rendering:geometricPrecision; image-rendering:optimizeQuality; fill-rule:evenodd; clip-rule:evenodd" xmlns:xlink="http://www.w3.org/1999/xlink">
<g><path style="opacity:1" fill="#fcfcfc" d="M -0.5,-0.5 C 56.1667,-0.5 112.833,-0.5 169.5,-0.5C 169.5,56.1667 169.5,112.833 169.5,169.5C 112.833,169.5 56.1667,169.5 -0.5,169.5C -0.5,112.833 -0.5,56.1667 -0.5,-0.5 Z"/></g>
<g><path style="opacity:1" fill="#f9f8f8" d="M 129.5,31.5 C 129.421,32.9305 129.754,34.2638 130.5,35.5C 130.03,36.463 129.363,36.463 128.5,35.5C 128.34,31.7636 127.507,31.7636 126,35.5C 121.793,52.2025 117.46,68.8691 113,85.5C 112.566,93.627 113.399,101.627 115.5,109.5C 114.426,110.885 113.093,112.051 111.5,113C 114.196,113.149 116.196,111.982 117.5,109.5C 119.463,108.04 121.296,106.373 123,104.5C 127.462,97.0743 132.295,89.9076 137.5,83C 141.362,80.0695 145.695,78.2362 150.5,77.5C 154.989,77.8333 156.489,80.1666 155,84.5C 151.123,92.3686 146.456,99.7019 141,106.5C 136.519,116.288 131.852,125.955 127,135.5C 120.616,144.89 113.116,153.39 104.5,161C 98.5679,164.101 92.5679,164.267 86.5,161.5C 90.1224,160.675 93.789,160.175 97.5,160C 95.1667,159.833 92.8333,159.667 90.5,159.5C 82.0872,160.316 73.7539,161.649 65.5,163.5C 60.9223,163.476 57.089,161.81 54,158.5C 45.5333,138.636 39.8666,117.97 37,96.5C 28.3086,83.7873 20.6419,70.454 14,56.5C 12.845,47.6201 15.5117,46.2868 22,52.5C 30.5543,65.6324 40.0543,77.9658 50.5,89.5C 53.0864,89.0542 54.4197,87.5542 54.5,85C 49.825,64.7751 44.9917,44.6084 40,24.5C 38.3317,18.5069 40.4983,16.0069 46.5,17C 47.3333,17.8333 48.1667,18.6667 49,19.5C 55.4689,39.9066 62.1356,60.2399 69,80.5C 71.8402,83.3707 74.1735,83.0374 76,79.5C 77.1175,56.1732 78.1175,32.8399 79,9.5C 82.1705,4.58588 85.8372,4.25254 90,8.5C 90.3333,10.5 90.6667,12.5 91,14.5C 91.1725,36.0728 91.6725,57.5728 92.5,79C 95.3471,79.9439 97.8471,79.4439 100,77.5C 105.231,58.9049 111.231,40.5716 118,22.5C 121.333,18.5 124.667,18.5 128,22.5C 128.728,25.2305 128.562,27.8971 127.5,30.5C 127.957,31.2975 128.624,31.6309 129.5,31.5 Z"/></g>
<g><path style="opacity:1" fill="#2e2d2d" d="M 129.5,31.5 C 128.624,31.6309 127.957,31.2975 127.5,30.5C 128.562,27.8971 128.728,25.2305 128,22.5C 124.667,18.5 121.333,18.5 118,22.5C 111.231,40.5716 105.231,58.9049 100,77.5C 97.8471,79.4439 95.3471,79.9439 92.5,79C 91.6725,57.5728 91.1725,36.0728 91,14.5C 90.6667,12.5 90.3333,10.5 90,8.5C 85.8372,4.25254 82.1705,4.58588 79,9.5C 78.1175,32.8399 77.1175,56.1732 76,79.5C 74.1735,83.0374 71.8402,83.3707 69,80.5C 62.1356,60.2399 55.4689,39.9066 49,19.5C 48.1667,18.6667 47.3333,17.8333 46.5,17C 40.4983,16.0069 38.3317,18.5069 40,24.5C 44.9917,44.6084 49.825,64.7751 54.5,85C 54.4197,87.5542 53.0864,89.0542 50.5,89.5C 40.0543,77.9658 30.5543,65.6324 22,52.5C 15.5117,46.2868 12.845,47.6201 14,56.5C 20.6419,70.454 28.3086,83.7873 37,96.5C 39.8666,117.97 45.5333,138.636 54,158.5C 57.089,161.81 60.9223,163.476 65.5,163.5C 73.7539,161.649 82.0872,160.316 90.5,159.5C 92.8333,159.667 95.1667,159.833 97.5,160C 93.789,160.175 90.1224,160.675 86.5,161.5C 92.5679,164.267 98.5679,164.101 104.5,161C 113.116,153.39 120.616,144.89 127,135.5C 131.852,125.955 136.519,116.288 141,106.5C 146.456,99.7019 151.123,92.3686 155,84.5C 156.489,80.1666 154.989,77.8333 150.5,77.5C 145.695,78.2362 141.362,80.0695 137.5,83C 132.295,89.9076 127.462,97.0743 123,104.5C 121.296,106.373 119.463,108.04 117.5,109.5C 116.833,109.5 116.167,109.5 115.5,109.5C 113.399,101.627 112.566,93.627 113,85.5C 117.46,68.8691 121.793,52.2025 126,35.5C 127.507,31.7636 128.34,31.7636 128.5,35.5C 123.738,51.6396 119.238,67.9729 115,84.5C 114.091,91.9499 114.591,99.2833 116.5,106.5C 117.002,107.521 117.668,107.688 118.5,107C 124.179,100.979 128.679,94.146 132,86.5C 137.229,79.6365 144.062,76.1365 152.5,76C 157.216,77.4942 158.716,80.6609 157,85.5C 151.916,94.0029 146.583,102.336 141,110.5C 134.318,130.038 123.484,146.871 108.5,161C 104.755,164.206 100.422,165.706 95.5,165.5C 90.1973,165.216 85.0307,164.216 80,162.5C 73.2617,164.384 66.4284,165.217 59.5,165C 57.6667,163.833 55.8333,162.667 54,161.5C 49.9197,155.338 46.9197,148.671 45,141.5C 41.156,126.946 37.8226,112.279 35,97.5C 27.7484,85.9991 20.7484,74.3324 14,62.5C 12.6516,59.2894 11.8182,55.9561 11.5,52.5C 11.5129,47.001 14.1795,45.1677 19.5,47C 29.0511,58.8834 38.2177,71.0501 47,83.5C 48.2635,85.607 50.0968,86.607 52.5,86.5C 47.9824,66.1092 43.1491,45.7758 38,25.5C 36.3948,20.0523 38.0615,16.0523 43,13.5C 46.4335,13.9324 49.1002,15.5991 51,18.5C 57.4942,38.1537 63.8276,57.8204 70,77.5C 70.5764,80.1242 71.9098,80.7908 74,79.5C 75.3536,56.5209 76.3536,33.5209 77,10.5C 78.2393,3.9283 82.0727,1.76163 88.5,4C 90.0488,5.21398 91.2155,6.71398 92,8.5C 93.208,31.4842 93.708,54.4842 93.5,77.5C 95.1667,77.5 96.8333,77.5 98.5,77.5C 103.164,58.0095 109.33,39.0095 117,20.5C 120.026,17.1355 123.526,16.6355 127.5,19C 130.802,22.687 131.469,26.8537 129.5,31.5 Z"/></g>
<g><path style="opacity:1" fill="#6f6e6e" d="M 115.5,109.5 C 116.167,109.5 116.833,109.5 117.5,109.5C 116.196,111.982 114.196,113.149 111.5,113C 113.093,112.051 114.426,110.885 115.5,109.5 Z"/></g>
</svg>
